HIERARCHY
ROOT Hips
{
    OFFSET 0.000000 0.000000 0.000000
    CHANNELS 6 Xposition Yposition Zposition Zrotation Xrotation Yrotation
    JOINT Spine
    {
        OFFSET -0.000000 14.517291 0.000000
        CHANNELS 3 Zrotation Xrotation Yrotation
        JOINT Spine1
        {
            OFFSET -0.000000 37.558300 0.000000
            CHANNELS 3 Zrotation Xrotation Yrotation
            JOINT Neck
            {
                OFFSET -0.000000 37.404057 3.400369
                CHANNELS 3 Zrotation Xrotation Yrotation
                JOINT Head
                {
                    OFFSET -0.000000 24.785618 -3.540803
                    CHANNELS 3 Zrotation Xrotation Yrotation
                    End Site
                    {
                        OFFSET -0.000000 35.408028 0.000000
                    }
                }
            }
            JOINT LeftShoulder
            {
                OFFSET 6.992933 33.973492 -0.192664
                CHANNELS 3 Zrotation Xrotation Yrotation
                JOINT LeftArm
                {
                    OFFSET 21.527611 0.000000 0.000000
                    CHANNELS 3 Zrotation Xrotation Yrotation
                    JOINT LeftForeArm
                    {
                        OFFSET 56.353916 0.000000 0.000000
                        CHANNELS 3 Zrotation Xrotation Yrotation
                        JOINT LeftHand
                        {
                            OFFSET 47.774071 0.000000 0.000000
                            CHANNELS 3 Zrotation Xrotation Yrotation
                            End Site
                            {
                                OFFSET 26.556021 0.000000 0.000000
                            }
                        }
                    }
                }
            }
            JOINT RightShoulder
            {
                OFFSET -7.065357 33.973492 -0.192664
                CHANNELS 3 Zrotation Xrotation Yrotation
                JOINT RightArm
                {
                    OFFSET -21.527611 0.000000 0.000000
                    CHANNELS 3 Zrotation Xrotation Yrotation
                    JOINT RightForeArm
                    {
                        OFFSET -56.353916 0.000000 0.000000
                        CHANNELS 3 Zrotation Xrotation Yrotation
                        JOINT RightHand
                        {
                            OFFSET -47.774071 0.000000 0.000000
                            CHANNELS 3 Zrotation Xrotation Yrotation
                            End Site
                            {
                                OFFSET -26.556021 0.000000 0.000000
                            }
                        }
                    }
                }
            }
        }
    }
    JOINT LeftUpLeg
    {
        OFFSET 17.704014 0.000000 0.000000
        CHANNELS 3 Zrotation Xrotation Yrotation
        JOINT LeftLeg
        {
            OFFSET -0.000000 -81.181816 0.000000
            CHANNELS 3 Zrotation Xrotation Yrotation
            JOINT LeftFoot
            {
                OFFSET -0.000000 -62.821102 0.000000
                CHANNELS 3 Zrotation Xrotation Yrotation
                JOINT LeftToeBase
                {
                    OFFSET -0.000000 -11.507608 26.556021
                    CHANNELS 3 Zrotation Xrotation Yrotation
                    End Site
                    {
                        OFFSET -0.000000 0.000000 7.081605
                    }
                }
            }
        }
    }
    JOINT RightUpLeg
    {
        OFFSET -17.704014 0.000000 0.000000
        CHANNELS 3 Zrotation Xrotation Yrotation
        JOINT RightLeg
        {
            OFFSET -0.000000 -81.181816 0.000000
            CHANNELS 3 Zrotation Xrotation Yrotation
            JOINT RightFoot
            {
                OFFSET -0.000000 -62.821102 0.000000
                CHANNELS 3 Zrotation Xrotation Yrotation
                JOINT RightToeBase
                {
                    OFFSET -0.000000 -11.507608 26.556021
                    CHANNELS 3 Zrotation Xrotation Yrotation
                    End Site
                    {
                        OFFSET -0.000000 0.000000 7.081605
                    }
                }
            }
        }
    }
}
MOTION
Frames:    4
Frame Time:    0.008333
11.708519    140.294403    -51.571262    1.013526    -16.080627    -52.888248    8.322739    -3.480089    -1.427898    -1.227781    3.024833    -0.525545    13.237985    -4.818002    14.180721    -16.304562    19.116989    12.705454    9.667735    2.799085    -20.977577    -12.186615    -10.274406    -47.030144    18.662855    -42.034100    2.047747    -24.727749    -34.131390    -44.849503    -9.572515    4.314891    -1.590165    34.286388    10.364332    79.872162    9.738015    0.998681    106.889496    3.735963    -11.470628    20.538074    17.673983    -14.346375    -1.899088    -13.186912    24.607304    -11.458928    -17.263201    -5.095334    36.536839    0.000000    0.000000    0.000000    -23.461620    -11.426613    1.099944    11.921152    69.177193    -5.637118    -5.707949    -45.622551    -19.470552    0.000000    0.000000    0.000000    
11.710352    140.296555    -51.589561    1.020025    -16.075857    -52.913204    8.313287    -3.457584    -1.417806    -1.221095    3.028877    -0.521567    13.230494    -4.821040    14.190107    -16.306993    19.112459    12.715809    9.658924    2.791271    -20.977947    -12.157783    -10.282220    -47.023758    18.641600    -41.988274    2.033165    -24.324993    -34.281223    -44.573166    -9.584035    4.337145    -1.570207    34.289455    10.338287    79.879692    9.727651    0.976560    106.904312    3.727611    -11.483013    20.553438    17.678389    -14.338534    -1.901720    -13.180716    24.585909    -11.441977    -17.281549    -5.097528    36.536743    0.000000    0.000000    0.000000    -23.461607    -11.451502    1.119482    11.965677    69.174767    -5.667485    -5.715606    -45.623447    -19.478035    0.000000    0.000000    0.000000    
11.714879    140.297745    -51.605534    1.021035    -16.068659    -52.931351    8.313706    -3.443170    -1.411840    -1.232674    3.055393    -0.518690    13.240698    -4.823578    14.201938    -16.319565    19.094118    12.723502    9.670106    2.771543    -20.977177    -12.118251    -10.272155    -47.011883    18.641245    -41.983299    2.046345    -24.723629    -34.079029    -44.834106    -9.576093    4.347733    -1.559056    34.281994    10.311676    79.888779    9.724488    0.946737    106.917473    3.719680    -11.511469    20.582775    17.687143    -14.335141    -1.891683    -13.173336    24.570881    -11.460268    -17.285286    -5.091806    36.563789    0.000000    0.000000    0.000000    -23.462137    -11.472816    1.155884    12.077137    69.168976    -5.754923    -5.745158    -45.615257    -19.493128    0.000000    0.000000    0.000000    
11.719143    140.291794    -51.624508    1.023915    -16.053579    -52.944702    8.308641    -3.429470    -1.402162    -1.229344    3.070941    -0.515023    13.230341    -4.835997    14.207566    -16.313051    19.101274    12.730856    9.671751    2.746040    -20.999868    -12.037625    -10.203167    -46.968925    18.648767    -41.987926    2.049531    -24.307072    -34.291748    -44.562885    -9.574081    4.353783    -1.557490    34.269615    10.305570    79.903679    9.697523    0.898646    106.912773    3.714715    -11.521037    20.608353    17.701635    -14.346336    -1.895512    -13.174561    24.569914    -11.430803    -17.287746    -5.091054    36.553234    0.000000    0.000000    0.000000    -23.448277    -11.501377    1.162220    12.090649    69.181427    -5.720201    -5.758937    -45.613918    -19.545988    0.000000    0.000000    0.000000    
